<svg xmlns="http://www.w3.org/2000/svg" width="240" height="30"><path fill="#FEFEFE" fill-rule="evenodd" d="M239.575 26.496c0-.371-.096-.73-.288-1.074a1.979 1.979 0 0 0-.801-.793 2.198 2.198 0 0 0-1.053-.278c-.361 0-.712.093-1.053.278a1.99 1.99 0 0 0-.802.793 2.17 2.17 0 0 0-.29 1.074c0 .37.095.724.285 1.064.189.34.454.604.794.794.34.19.696.284 1.066.284.37 0 .725-.095 1.066-.284.34-.19.605-.454.793-.794.188-.34.283-.694.283-1.064zm.425 0a2.6 2.6 0 0 1-.339 1.277 2.391 2.391 0 0 1-.95.952 2.602 2.602 0 0 1-1.278.338c-.445 0-.87-.113-1.278-.338a2.408 2.408 0 0 1-.952-.952 2.593 2.593 0 0 1-.34-1.277c0-.446.115-.876.345-1.288.23-.411.552-.729.962-.95a2.63 2.63 0 0 1 1.263-.331c.431 0 .852.11 1.263.331.41.221.731.539.96.95.23.412.344.842.344 1.288zm-2.177-.252a.377.377 0 0 0 .141-.305.363.363 0 0 0-.068-.218.399.399 0 0 0-.189-.144c-.08-.032-.23-.048-.447-.048h-.508v.83h.541c.26 0 .436-.039.53-.115zm.467 1.129l.337.54h-.542l-.246-.434c-.193-.343-.35-.557-.468-.644-.082-.063-.2-.094-.357-.093h-.262v1.171h-.446v-2.76h.95c.325 0 .56.025.705.076.146.052.262.14.348.267.087.127.13.262.13.405a.736.736 0 0 1-.217.527.865.865 0 0 1-.576.252c.099.04.177.089.235.145.112.11.247.291.409.548zm-50.142-8.913c-1.296.524-3.24.97-5.832 1.337-1.467.21-2.505.446-3.114.708-.608.262-1.078.646-1.408 1.15a3 3 0 0 0-.496 1.68c0 .944.36 1.731 1.08 2.36.718.629 1.771.944 3.157.944 1.373 0 2.593-.299 3.663-.895 1.07-.596 1.854-1.411 2.355-2.446.383-.8.575-1.98.575-3.54l.02-1.298zm3.823 7.989c.147.882.438 1.728.872 2.538h-3.724c-.357-.75-.586-1.628-.688-2.633-1.324 1.125-2.597 1.92-3.818 2.382-1.221.464-2.532.695-3.931.695-2.31 0-4.086-.561-5.328-1.686-1.24-1.124-1.861-2.56-1.861-4.308 0-1.026.234-1.963.703-2.81a5.79 5.79 0 0 1 1.842-2.04 8.65 8.65 0 0 1 2.564-1.165c.7-.184 1.756-.361 3.17-.532 2.877-.342 4.996-.75 6.356-1.223.013-.486.02-.795.02-.926 0-1.445-.338-2.462-1.011-3.054-.912-.801-2.267-1.202-4.064-1.202-1.678 0-2.917.295-3.717.884-.8.588-1.391 1.63-1.774 3.124l-3.482-.485c.318-1.493.84-2.698 1.566-3.616.728-.917 1.779-1.624 3.154-2.119 1.376-.495 2.968-.743 4.78-.743 1.798 0 3.259.211 4.382.634 1.124.422 1.95.954 2.48 1.595.528.64.899 1.45 1.11 2.427.119.607.178 1.699.178 3.274v4.724c0 3.294.074 5.382.22 6.265zm-24.27-9.972c-.158-1.767-.605-3.092-1.342-3.975-1.131-1.371-2.598-2.057-4.399-2.057-1.63 0-3.003.547-4.114 1.642-1.112 1.094-1.726 2.557-1.845 4.39h11.7zm1.102-6.085c1.775 1.907 2.663 4.592 2.663 8.052 0 .21-.006.527-.02.947H155.8c.132 2.304.783 4.066 1.954 5.29 1.17 1.224 2.632 1.836 4.382 1.836 1.302 0 2.415-.345 3.335-1.033.922-.69 1.652-1.788 2.192-3.3l3.685.487c-.579 2.141-1.65 3.804-3.215 4.987-1.565 1.182-3.564 1.773-5.997 1.773-3.063 0-5.492-.943-7.287-2.83-1.795-1.888-2.692-4.535-2.692-7.943 0-3.525.907-6.26 2.721-8.207 1.815-1.947 4.169-2.92 7.062-2.92 2.8 0 5.089.953 6.864 2.86zm60.216-1.943c-1.141-.613-2.486-.919-4.034-.919-2.519 0-4.605.966-6.258 2.898V0h-3.563v28.987h3.563V17.516c0-1.645.196-2.935.59-3.87.392-.933 1.05-1.674 1.973-2.22a5.71 5.71 0 0 1 2.956-.82c1.4 0 2.485.406 3.25 1.215.766.81 1.15 2.103 1.15 3.879v13.287h3.562V15.69c0-2.055-.246-3.623-.738-4.702-.492-1.08-1.308-1.927-2.45-2.54zM210.117 25.95c-.525 0-.93-.086-1.211-.258a1.485 1.485 0 0 1-.61-.693c-.125-.29-.187-.945-.187-1.963V10.728h3.562V7.975h-3.562V.643l-3.563 2.134v5.198h-2.632v2.753h2.632v12.103c0 2.14.145 3.543.434 4.21.29.667.79 1.205 1.499 1.615.71.409 1.708.613 2.997.613.788 0 1.682-.104 2.68-.316l-.485-3.143c-.643.093-1.161.14-1.554.14zm-14.113 3.037h3.563V0h-3.563v28.987zM0 7.166h9.15v21.82h8.946V7.167h9.15V0H0v7.166zm39.65 9.554h13.885v-5.91H39.65V6.193h14.978V0H30.662v28.987h24.412v-6.56H39.65V16.72zm35.003 1.214l-3.16-10.42-3.176 10.42h6.336zM76.518 0l10.863 28.987h-9.377l-1.45-4.777h-10.15l-1.456 4.777h-9.143L66.712 0h9.806zm68.147 11.943h-14.978V0h-3.845v28.987h3.845V15.344h14.978v13.643h3.847V0h-3.847v11.943zM109.171 0h11.763v28.987h-7.327v-22.1l-5.653 22.1h-6.639l-5.642-22.1v22.1h-7.327V0h11.81l4.504 17.639L109.17 0z"/></svg>